Raleway-Thin-OTF.ufo
<glyph name="one" format="1">
  <advance width="375"/>
  <unicode hex="0031"/>
  <outline>
    <contour>
      <point x="230" y="20" type="line"/>
      <point x="230" y="571" type="line"/>
      <point x="210" y="571" type="line"/>
      <point x="208" y="567"/>
      <point x="117" y="476"/>
      <point x="45" y="476" type="curve"/>
      <point x="45" y="452" type="line"/>
      <point x="99" y="452"/>
      <point x="188" y="507"/>
      <point x="210" y="538" type="curve"/>
      <point x="210" y="20" type="line"/>
      <point x="68" y="20" type="line"/>
      <point x="68" y="0" type="line"/>
      <point x="357" y="0" type="line"/>
      <point x="357" y="20" type="line"/>
    </contour>
  </outline>
</glyph>
<glyph name="question" format="1">
  <advance width="468"/>
  <unicode hex="003F"/>
  <outline>
    <contour>
      <point x="198" y="179" type="line"/>
      <point x="198" y="297"/>
      <point x="229" y="324"/>
      <point x="272" y="347" type="curve" smooth="yes"/>
      <point x="343" y="386"/>
      <point x="430" y="411"/>
      <point x="430" y="532" type="curve" smooth="yes"/>
      <point x="430" y="655"/>
      <point x="340" y="719"/>
      <point x="243" y="719" type="curve" smooth="yes"/>
      <point x="160" y="719"/>
      <point x="72" y="673"/>
      <point x="35" y="590" type="curve"/>
      <point x="53" y="582" type="line"/>
      <point x="87" y="654"/>
      <point x="164" y="699"/>
      <point x="244" y="699" type="curve" smooth="yes"/>
      <point x="328" y="699"/>
      <point x="410" y="649"/>
      <point x="410" y="535" type="curve" smooth="yes"/>
      <point x="410" y="420"/>
      <point x="327" y="399"/>
      <point x="264" y="366" type="curve" smooth="yes"/>
      <point x="215" y="341"/>
      <point x="178" y="307"/>
      <point x="178" y="179" type="curve"/>
    </contour>
    <contour>
      <point x="198" y="0" type="line"/>
      <point x="198" y="84" type="line"/>
      <point x="178" y="84" type="line"/>
      <point x="178" y="0" type="line"/>
    </contour>
  </outline>
</glyph>
<glyph name="H" format="1">
  <advance width="731"/>
  <unicode hex="0048"/>
  <outline>
    <contour>
      <point x="367" y="707" type="move" name="top"/>
    </contour>
    <contour>
      <point x="612" y="710" type="line"/>
      <point x="612" y="373" type="line"/>
      <point x="119" y="373" type="line"/>
      <point x="119" y="710" type="line"/>
      <point x="99" y="710" type="line"/>
      <point x="99" y="0" type="line"/>
      <point x="119" y="0" type="line"/>
      <point x="119" y="353" type="line"/>
      <point x="612" y="353" type="line"/>
      <point x="612" y="0" type="line"/>
      <point x="632" y="0" type="line"/>
      <point x="632" y="710" type="line"/>
    </contour>
  </outline>
</glyph>
<glyph name="Atilde" format="1">
  <advance width="674"/>
  <unicode hex="00C3"/>
  <outline>
    <contour>
      <point x="18" y="0" type="line"/>
      <point x="40" y="0" type="line"/>
      <point x="151" y="254" type="line"/>
      <point x="522" y="254" type="line"/>
      <point x="633" y="0" type="line"/>
      <point x="655" y="0" type="line"/>
      <point x="346" y="710" type="line"/>
      <point x="328" y="710" type="line"/>
    </contour>
    <contour>
      <point x="159" y="274" type="line"/>
      <point x="337" y="681" type="line"/>
      <point x="513" y="274" type="line"/>
    </contour>
    <contour>
      <point x="398" y="851" type="curve" smooth="yes"/>
      <point x="471" y="851"/>
      <point x="479" y="909"/>
      <point x="479" y="918" type="curve"/>
      <point x="459" y="918" type="line"/>
      <point x="459" y="914"/>
      <point x="455" y="870"/>
      <point x="400" y="870" type="curve" smooth="yes"/>
      <point x="349" y="870"/>
      <point x="327" y="908"/>
      <point x="275" y="908" type="curve" smooth="yes"/>
      <point x="209" y="908"/>
      <point x="202" y="847"/>
      <point x="202" y="841" type="curve"/>
      <point x="222" y="841" type="line"/>
      <point x="222" y="847"/>
      <point x="230" y="889"/>
      <point x="273" y="889" type="curve" smooth="yes"/>
      <point x="314" y="889"/>
      <point x="339" y="851"/>
    </contour>
  </outline>
</glyph>
<glyph name="Ccedilla" format="1">
  <advance width="693"/>
  <unicode hex="00C7"/>
  <outline>
    <contour>
      <point x="296" y="-143" type="line"/>
      <point x="321" y="-153"/>
      <point x="355" y="-162"/>
      <point x="390" y="-162" type="curve" smooth="yes"/>
      <point x="440" y="-162"/>
      <point x="471" y="-145"/>
      <point x="471" y="-105" type="curve" smooth="yes"/>
      <point x="471" y="-70"/>
      <point x="448" y="-51"/>
      <point x="403" y="-51" type="curve" smooth="yes"/>
      <point x="393" y="-51"/>
      <point x="374" y="-52"/>
      <point x="361" y="-57" type="curve"/>
      <point x="391" y="-5" type="line"/>
      <point x="495" y="0"/>
      <point x="608" y="57"/>
      <point x="655" y="159" type="curve"/>
      <point x="636" y="164" type="line"/>
      <point x="581" y="60"/>
      <point x="472" y="14"/>
      <point x="378" y="14" type="curve" smooth="yes"/>
      <point x="203" y="14"/>
      <point x="64" y="176"/>
      <point x="64" y="357" type="curve" smooth="yes"/>
      <point x="64" y="521"/>
      <point x="177" y="694"/>
      <point x="375" y="694" type="curve" smooth="yes"/>
      <point x="466" y="694"/>
      <point x="564" y="657"/>
      <point x="619" y="553" type="curve"/>
      <point x="638" y="559" type="line"/>
      <point x="595" y="649"/>
      <point x="505" y="714"/>
      <point x="379" y="714" type="curve" smooth="yes"/>
      <point x="166" y="714"/>
      <point x="44" y="530"/>
      <point x="44" y="360" type="curve" smooth="yes"/>
      <point x="44" y="182"/>
      <point x="177" y="-1"/>
      <point x="366" y="-5" type="curve"/>
      <point x="322" y="-83" type="line"/>
      <point x="340" y="-77"/>
      <point x="375" y="-67"/>
      <point x="403" y="-67" type="curve" smooth="yes"/>
      <point x="431" y="-67"/>
      <point x="451" y="-77"/>
      <point x="451" y="-105" type="curve" smooth="yes"/>
      <point x="451" y="-132"/>
      <point x="432" y="-143"/>
      <point x="393" y="-143" type="curve" smooth="yes"/>
      <point x="359" y="-143"/>
      <point x="326" y="-134"/>
      <point x="306" y="-125" type="curve"/>
    </contour>
  </outline>
</glyph>
<glyph name="Thorn" format="1">
  <advance width="599"/>
  <unicode hex="00DE"/>
  <outline>
    <contour>
      <point x="368" y="560" type="curve"/>
      <point x="119" y="560" type="line"/>
      <point x="119" y="710" type="line"/>
      <point x="99" y="710" type="line"/>
      <point x="99" y="0" type="line"/>
      <point x="119" y="0" type="line"/>
      <point x="119" y="129" type="line"/>
      <point x="375" y="129" type="line" smooth="yes"/>
      <point x="490" y="129"/>
      <point x="568" y="234"/>
      <point x="568" y="345" type="curve" smooth="yes"/>
      <point x="568" y="451"/>
      <point x="484" y="560"/>
    </contour>
    <contour>
      <point x="375" y="149" type="curve"/>
      <point x="119" y="149" type="line"/>
      <point x="119" y="540" type="line"/>
      <point x="368" y="540" type="line" smooth="yes"/>
      <point x="468" y="540"/>
      <point x="548" y="446"/>
      <point x="548" y="345" type="curve" smooth="yes"/>
      <point x="548" y="249"/>
      <point x="483" y="149"/>
    </contour>
  </outline>
</glyph>
<glyph name="cdotaccent" format="1">
  <advance width="538"/>
  <unicode hex="010B"/>
  <outline>
    <contour>
      <point x="46" y="262" type="curve" smooth="yes"/>
      <point x="46" y="113"/>
      <point x="160" y="-10"/>
      <point x="297" y="-10" type="curve" smooth="yes"/>
      <point x="387" y="-10"/>
      <point x="475" y="43"/>
      <point x="498" y="113" type="curve"/>
      <point x="478" y="119" type="line"/>
      <point x="462" y="62"/>
      <point x="375" y="10"/>
      <point x="294" y="10" type="curve" smooth="yes"/>
      <point x="170" y="10"/>
      <point x="66" y="125"/>
      <point x="66" y="262" type="curve" smooth="yes"/>
      <point x="66" y="399"/>
      <point x="166" y="507"/>
      <point x="293" y="507" type="curve" smooth="yes"/>
      <point x="369" y="507"/>
      <point x="437" y="468"/>
      <point x="471" y="404" type="curve"/>
      <point x="491" y="411" type="line"/>
      <point x="456" y="484"/>
      <point x="383" y="527"/>
      <point x="296" y="527" type="curve" smooth="yes"/>
      <point x="155" y="527"/>
      <point x="46" y="411"/>
    </contour>
    <contour>
      <point x="303" y="653" type="line"/>
      <point x="303" y="730" type="line"/>
      <point x="283" y="730" type="line"/>
      <point x="283" y="653" type="line"/>
    </contour>
  </outline>
</glyph>
<glyph name="Ebreve" format="1">
  <advance width="617"/>
  <unicode hex="0114"/>
  <outline>
    <contour>
      <point x="119" y="20" type="line"/>
      <point x="119" y="353" type="line"/>
      <point x="502" y="353" type="line"/>
      <point x="502" y="373" type="line"/>
      <point x="119" y="373" type="line"/>
      <point x="119" y="690" type="line"/>
      <point x="556" y="690" type="line"/>
      <point x="556" y="710" type="line"/>
      <point x="99" y="710" type="line"/>
      <point x="99" y="0" type="line"/>
      <point x="565" y="0" type="line"/>
      <point x="565" y="20" type="line"/>
    </contour>
    <contour>
      <point x="344" y="858" type="curve" smooth="yes"/>
      <point x="316" y="858"/>
      <point x="289" y="888"/>
      <point x="289" y="918" type="curve"/>
      <point x="270" y="918" type="line"/>
      <point x="270" y="877"/>
      <point x="305" y="841"/>
      <point x="344" y="841" type="curve" smooth="yes"/>
      <point x="383" y="841"/>
      <point x="418" y="877"/>
      <point x="418" y="918" type="curve"/>
      <point x="400" y="918" type="line"/>
      <point x="396" y="885"/>
      <point x="371" y="858"/>
    </contour>
  </outline>
</glyph>
<glyph name="eogonek" format="1">
  <advance width="576"/>
  <unicode hex="0119"/>
  <outline>
    <contour>
      <point x="267" y="-168" type="curve"/>
      <point x="279" y="-151" type="line"/>
      <point x="250" y="-145"/>
      <point x="235" y="-129"/>
      <point x="235" y="-104" type="curve" smooth="yes"/>
      <point x="235" y="-74"/>
      <point x="256" y="-50"/>
      <point x="316" y="-9" type="curve"/>
      <point x="399" y="-2"/>
      <point x="476" y="48"/>
      <point x="502" y="114" type="curve"/>
      <point x="483" y="119" type="line"/>
      <point x="454" y="55"/>
      <point x="377" y="10"/>
      <point x="297" y="10" type="curve" smooth="yes"/>
      <point x="176" y="10"/>
      <point x="76" y="114"/>
      <point x="66" y="248" type="curve"/>
      <point x="541" y="248" type="line"/>
      <point x="541" y="259" type="line" smooth="yes"/>
      <point x="540" y="408"/>
      <point x="429" y="527"/>
      <point x="291" y="527" type="curve" smooth="yes"/>
      <point x="155" y="527"/>
      <point x="46" y="409"/>
      <point x="46" y="263" type="curve" smooth="yes"/>
      <point x="46" y="118"/>
      <point x="152" y="-3"/>
      <point x="284" y="-10" type="curve"/>
      <point x="235" y="-48"/>
      <point x="215" y="-76"/>
      <point x="215" y="-107" type="curve" smooth="yes"/>
      <point x="215" y="-137"/>
      <point x="234" y="-160"/>
    </contour>
    <contour>
      <point x="66" y="268" type="line"/>
      <point x="73" y="405"/>
      <point x="169" y="507"/>
      <point x="292" y="507" type="curve" smooth="yes"/>
      <point x="415" y="507"/>
      <point x="511" y="407"/>
      <point x="520" y="268" type="curve"/>
    </contour>
  </outline>
</glyph>
<glyph name="itilde" format="1">
  <advance width="188"/>
  <unicode hex="0129"/>
  <outline>
    <contour>
      <point x="104" y="0" type="line"/>
      <point x="104" y="519" type="line"/>
      <point x="84" y="519" type="line"/>
      <point x="84" y="0" type="line"/>
    </contour>
    <contour>
      <point x="155" y="663" type="curve" smooth="yes"/>
      <point x="228" y="663"/>
      <point x="236" y="721"/>
      <point x="236" y="730" type="curve"/>
      <point x="216" y="730" type="line"/>
      <point x="216" y="726"/>
      <point x="212" y="682"/>
      <point x="157" y="682" type="curve" smooth="yes"/>
      <point x="106" y="682"/>
      <point x="84" y="720"/>
      <point x="32" y="720" type="curve" smooth="yes"/>
      <point x="-34" y="720"/>
      <point x="-41" y="659"/>
      <point x="-41" y="653" type="curve"/>
      <point x="-21" y="653" type="line"/>
      <point x="-21" y="659"/>
      <point x="-13" y="701"/>
      <point x="30" y="701" type="curve" smooth="yes"/>
      <point x="71" y="701"/>
      <point x="96" y="663"/>
    </contour>
  </outline>
</glyph>
<glyph name="kcommaaccent" format="1">
  <advance width="508"/>
  <unicode hex="0137"/>
  <outline>
    <contour>
      <point x="490" y="0" type="line"/>
      <point x="260" y="311" type="line"/>
      <point x="485" y="517" type="line"/>
      <point x="458" y="517" type="line"/>
      <point x="104" y="196" type="line"/>
      <point x="104" y="730" type="line"/>
      <point x="84" y="730" type="line"/>
      <point x="84" y="0" type="line"/>
      <point x="104" y="0" type="line"/>
      <point x="104" y="169" type="line"/>
      <point x="245" y="297" type="line"/>
      <point x="466" y="0" type="line"/>
    </contour>
    <contour>
      <point x="262" y="-167" type="line"/>
      <point x="275" y="-109" type="line"/>
      <point x="275" y="-50" type="line"/>
      <point x="249" y="-50" type="line"/>
      <point x="249" y="-109" type="line"/>
      <point x="258" y="-109" type="line"/>
      <point x="248" y="-167" type="line"/>
    </contour>
  </outline>
</glyph>
<glyph name="kgreenlandic" format="1">
  <advance width="508"/>
  <unicode hex="0138"/>
  <outline>
    <contour>
      <point x="490" y="0" type="line"/>
      <point x="260" y="311" type="line"/>
      <point x="485" y="517" type="line"/>
      <point x="458" y="517" type="line"/>
      <point x="104" y="196" type="line"/>
      <point x="104" y="519" type="line"/>
      <point x="84" y="519" type="line"/>
      <point x="84" y="0" type="line"/>
      <point x="104" y="0" type="line"/>
      <point x="104" y="169" type="line"/>
      <point x="245" y="297" type="line"/>
      <point x="466" y="0" type="line"/>
    </contour>
  </outline>
</glyph>
<glyph name="lcaron" format="1">
  <advance width="238"/>
  <unicode hex="013E"/>
  <outline>
    <contour>
      <point x="90" y="77" type="line" smooth="yes"/>
      <point x="90" y="28"/>
      <point x="122" y="-5"/>
      <point x="169" y="-5" type="curve" smooth="yes"/>
      <point x="187" y="-5"/>
      <point x="220" y="1"/>
      <point x="238" y="7" type="curve"/>
      <point x="231" y="23" type="line"/>
      <point x="214" y="18"/>
      <point x="191" y="14"/>
      <point x="176" y="14" type="curve" smooth="yes"/>
      <point x="136" y="14"/>
      <point x="110" y="38"/>
      <point x="110" y="77" type="curve" smooth="yes"/>
      <point x="110" y="730" type="line"/>
      <point x="90" y="730" type="line"/>
    </contour>
    <contour>
      <point x="258" y="730" type="line"/>
      <point x="224" y="730" type="line"/>
      <point x="160" y="657" type="line"/>
      <point x="176" y="645" type="line"/>
    </contour>
  </outline>
</glyph>
<glyph name="ldot" format="1">
  <advance width="255"/>
  <unicode hex="0140"/>
  <outline>
    <contour>
      <point x="90" y="77" type="line" smooth="yes"/>
      <point x="90" y="28"/>
      <point x="122" y="-5"/>
      <point x="169" y="-5" type="curve" smooth="yes"/>
      <point x="187" y="-5"/>
      <point x="220" y="1"/>
      <point x="238" y="7" type="curve"/>
      <point x="231" y="23" type="line"/>
      <point x="214" y="18"/>
      <point x="191" y="14"/>
      <point x="176" y="14" type="curve" smooth="yes"/>
      <point x="136" y="14"/>
      <point x="110" y="38"/>
      <point x="110" y="77" type="curve" smooth="yes"/>
      <point x="110" y="730" type="line"/>
      <point x="90" y="730" type="line"/>
    </contour>
    <contour>
      <point x="236" y="250" type="line"/>
      <point x="236" y="333" type="line"/>
      <point x="216" y="333" type="line"/>
      <point x="216" y="250" type="line"/>
    </contour>
  </outline>
</glyph>
<glyph name="ncommaaccent" format="1">
  <advance width="565"/>
  <unicode hex="0146"/>
  <outline>
    <contour>
      <point x="487" y="289" type="line" smooth="yes"/>
      <point x="487" y="452"/>
      <point x="439" y="527"/>
      <point x="333" y="527" type="curve" smooth="yes"/>
      <point x="240" y="527"/>
      <point x="147" y="469"/>
      <point x="104" y="385" type="curve"/>
      <point x="104" y="519" type="line"/>
      <point x="84" y="519" type="line"/>
      <point x="84" y="0" type="line"/>
      <point x="104" y="0" type="line"/>
      <point x="104" y="328" type="line"/>
      <point x="133" y="430"/>
      <point x="234" y="507"/>
      <point x="334" y="507" type="curve" smooth="yes"/>
      <point x="427" y="507"/>
      <point x="467" y="440"/>
      <point x="467" y="289" type="curve" smooth="yes"/>
      <point x="467" y="0" type="line"/>
      <point x="487" y="0" type="line"/>
    </contour>
    <contour>
      <point x="277" y="-167" type="line"/>
      <point x="290" y="-109" type="line"/>
      <point x="290" y="-50" type="line"/>
      <point x="264" y="-50" type="line"/>
      <point x="264" y="-109" type="line"/>
      <point x="273" y="-109" type="line"/>
      <point x="263" y="-167" type="line"/>
    </contour>
  </outline>
</glyph>
<glyph name="Obreve" format="1">
  <advance width="757"/>
  <unicode hex="014E"/>
  <outline>
    <contour>
      <point x="379" y="-5" type="curve" smooth="yes"/>
      <point x="565" y="-5"/>
      <point x="709" y="164"/>
      <point x="709" y="355" type="curve" smooth="yes"/>
      <point x="709" y="532"/>
      <point x="575" y="715"/>
      <point x="379" y="715" type="curve" smooth="yes"/>
      <point x="192" y="715"/>
      <point x="48" y="544"/>
      <point x="48" y="355" type="curve" smooth="yes"/>
      <point x="48" y="173"/>
      <point x="183" y="-4"/>
    </contour>
    <contour>
      <point x="68" y="355" type="curve" smooth="yes"/>
      <point x="68" y="523"/>
      <point x="194" y="695"/>
      <point x="379" y="695" type="curve" smooth="yes"/>
      <point x="555" y="695"/>
      <point x="689" y="532"/>
      <point x="689" y="355" type="curve" smooth="yes"/>
      <point x="689" y="188"/>
      <point x="564" y="15"/>
      <point x="379" y="15" type="curve" smooth="yes"/>
      <point x="199" y="15"/>
      <point x="68" y="178"/>
    </contour>
    <contour>
      <point x="379" y="858" type="curve" smooth="yes"/>
      <point x="351" y="858"/>
      <point x="324" y="888"/>
      <point x="324" y="918" type="curve"/>
      <point x="305" y="918" type="line"/>
      <point x="305" y="877"/>
      <point x="340" y="841"/>
      <point x="379" y="841" type="curve" smooth="yes"/>
      <point x="418" y="841"/>
      <point x="453" y="877"/>
      <point x="453" y="918" type="curve"/>
      <point x="435" y="918" type="line"/>
      <point x="431" y="885"/>
      <point x="406" y="858"/>
    </contour>
  </outline>
</glyph>
<glyph name="ohungarumlaut" format="1">
  <advance width="586"/>
  <unicode hex="0151"/>
  <outline>
    <contour>
      <point x="293" y="-10" type="curve" smooth="yes"/>
      <point x="429" y="-10"/>
      <point x="540" y="113"/>
      <point x="540" y="258" type="curve" smooth="yes"/>
      <point x="540" y="404"/>
      <point x="427" y="527"/>
      <point x="293" y="527" type="curve" smooth="yes"/>
      <point x="159" y="527"/>
      <point x="46" y="404"/>
      <point x="46" y="258" type="curve" smooth="yes"/>
      <point x="46" y="113"/>
      <point x="156" y="-10"/>
    </contour>
    <contour>
      <point x="66" y="256" type="curve" smooth="yes"/>
      <point x="66" y="392"/>
      <point x="170" y="507"/>
      <point x="293" y="507" type="curve" smooth="yes"/>
      <point x="416" y="507"/>
      <point x="520" y="393"/>
      <point x="520" y="259" type="curve" smooth="yes"/>
      <point x="520" y="124"/>
      <point x="416" y="10"/>
      <point x="292" y="10" type="curve" smooth="yes"/>
      <point x="168" y="10"/>
      <point x="66" y="122"/>
    </contour>
    <contour>
      <point x="311" y="730" type="line"/>
      <point x="277" y="730" type="line"/>
      <point x="213" y="657" type="line"/>
      <point x="229" y="645" type="line"/>
    </contour>
    <contour>
      <point x="411" y="730" type="line"/>
      <point x="377" y="730" type="line"/>
      <point x="313" y="657" type="line"/>
      <point x="329" y="645" type="line"/>
    </contour>
  </outline>
</glyph>
<glyph name="Uring" format="1">
  <advance width="756"/>
  <unicode hex="016E"/>
  <outline>
    <contour>
      <point x="378" y="15" type="curve" smooth="yes"/>
      <point x="168" y="15"/>
      <point x="108" y="184"/>
      <point x="108" y="355" type="curve" smooth="yes"/>
      <point x="108" y="710" type="line"/>
      <point x="88" y="710" type="line"/>
      <point x="88" y="355" type="line" smooth="yes"/>
      <point x="88" y="177"/>
      <point x="154" y="-5"/>
      <point x="379" y="-5" type="curve" smooth="yes"/>
      <point x="597" y="-5"/>
      <point x="669" y="167"/>
      <point x="669" y="355" type="curve" smooth="yes"/>
      <point x="669" y="710" type="line"/>
      <point x="649" y="710" type="line"/>
      <point x="649" y="355" type="line" smooth="yes"/>
      <point x="649" y="189"/>
      <point x="592" y="15"/>
    </contour>
    <contour>
      <point x="322" y="861" type="curve" smooth="yes"/>
      <point x="322" y="829"/>
      <point x="347" y="804"/>
      <point x="379" y="804" type="curve" smooth="yes"/>
      <point x="411" y="804"/>
      <point x="436" y="829"/>
      <point x="436" y="861" type="curve" smooth="yes"/>
      <point x="436" y="893"/>
      <point x="411" y="918"/>
      <point x="379" y="918" type="curve" smooth="yes"/>
      <point x="347" y="918"/>
      <point x="322" y="893"/>
    </contour>
    <contour>
      <point x="379" y="902" type="curve" smooth="yes"/>
      <point x="401" y="902"/>
      <point x="420" y="886"/>
      <point x="420" y="861" type="curve" smooth="yes"/>
      <point x="420" y="837"/>
      <point x="399" y="820"/>
      <point x="379" y="820" type="curve" smooth="yes"/>
      <point x="356" y="820"/>
      <point x="338" y="838"/>
      <point x="338" y="861" type="curve" smooth="yes"/>
      <point x="338" y="886"/>
      <point x="357" y="902"/>
    </contour>
  </outline>
</glyph>
<glyph name="uogonek" format="1">
  <advance width="576"/>
  <unicode hex="0173"/>
  <outline>
    <contour>
      <point x="458" y="-159" type="curve"/>
      <point x="470" y="-142" type="line"/>
      <point x="441" y="-136"/>
      <point x="426" y="-120"/>
      <point x="426" y="-95" type="curve" smooth="yes"/>
      <point x="426" y="-65"/>
      <point x="447" y="-41"/>
      <point x="507" y="0" type="curve"/>
      <point x="507" y="20" type="line"/>
      <point x="497" y="20"/>
      <point x="491" y="28"/>
      <point x="491" y="40" type="curve" smooth="yes"/>
      <point x="491" y="519" type="line"/>
      <point x="471" y="519" type="line"/>
      <point x="471" y="189" type="line"/>
      <point x="440" y="85"/>
      <point x="345" y="10"/>
      <point x="245" y="10" type="curve" smooth="yes"/>
      <point x="146" y="10"/>
      <point x="98" y="81"/>
      <point x="98" y="228" type="curve" smooth="yes"/>
      <point x="98" y="519" type="line"/>
      <point x="78" y="519" type="line"/>
      <point x="78" y="228" type="line" smooth="yes"/>
      <point x="78" y="71"/>
      <point x="135" y="-10"/>
      <point x="245" y="-10" type="curve" smooth="yes"/>
      <point x="338" y="-10"/>
      <point x="426" y="45"/>
      <point x="471" y="132" type="curve"/>
      <point x="471" y="40" type="line" smooth="yes"/>
      <point x="471" y="26"/>
      <point x="476" y="14"/>
      <point x="485" y="6" type="curve"/>
      <point x="428" y="-35"/>
      <point x="406" y="-65"/>
      <point x="406" y="-98" type="curve" smooth="yes"/>
      <point x="406" y="-128"/>
      <point x="425" y="-151"/>
    </contour>
  </outline>
</glyph>
<glyph name="Zacute" format="1">
  <advance width="624"/>
  <unicode hex="0179"/>
  <outline>
    <contour>
      <point x="28" y="0" type="line"/>
      <point x="591" y="0" type="line"/>
      <point x="591" y="20" type="line"/>
      <point x="53" y="20" type="line"/>
      <point x="595" y="690" type="line"/>
      <point x="595" y="710" type="line"/>
      <point x="33" y="710" type="line"/>
      <point x="33" y="690" type="line"/>
      <point x="570" y="690" type="line"/>
      <point x="28" y="20" type="line"/>
    </contour>
    <contour>
      <point x="398" y="918" type="line"/>
      <point x="364" y="918" type="line"/>
      <point x="300" y="845" type="line"/>
      <point x="316" y="833" type="line"/>
    </contour>
  </outline>
</glyph>
<glyph name="zacute" format="1">
  <advance width="488"/>
  <unicode hex="017A"/>
  <outline>
    <contour>
      <point x="33" y="0" type="line"/>
      <point x="450" y="0" type="line"/>
      <point x="450" y="20" type="line"/>
      <point x="59" y="20" type="line"/>
      <point x="454" y="499" type="line"/>
      <point x="454" y="519" type="line"/>
      <point x="38" y="519" type="line"/>
      <point x="38" y="499" type="line"/>
      <point x="429" y="499" type="line"/>
      <point x="33" y="20" type="line"/>
    </contour>
    <contour>
      <point x="327" y="730" type="line"/>
      <point x="293" y="730" type="line"/>
      <point x="229" y="657" type="line"/>
      <point x="245" y="645" type="line"/>
    </contour>
  </outline>
</glyph>
<glyph name="uni01C5" format="1">
  <advance width="1199"/>
  <unicode hex="01C5"/>
  <outline>
    <contour>
      <point x="327" y="0" type="line" smooth="yes"/>
      <point x="531" y="0"/>
      <point x="660" y="141"/>
      <point x="660" y="356" type="curve" smooth="yes"/>
      <point x="660" y="552"/>
      <point x="550" y="710"/>
      <point x="327" y="710" type="curve" smooth="yes"/>
      <point x="99" y="710" type="line"/>
      <point x="99" y="0" type="line"/>
    </contour>
    <contour>
      <point x="640" y="356" type="curve" smooth="yes"/>
      <point x="640" y="165"/>
      <point x="533" y="20"/>
      <point x="327" y="20" type="curve" smooth="yes"/>
      <point x="119" y="20" type="line"/>
      <point x="119" y="690" type="line"/>
      <point x="327" y="690" type="line" smooth="yes"/>
      <point x="528" y="690"/>
      <point x="640" y="550"/>
    </contour>
    <contour>
      <point x="744" y="0" type="line"/>
      <point x="1161" y="0" type="line"/>
      <point x="1161" y="20" type="line"/>
      <point x="770" y="20" type="line"/>
      <point x="1165" y="499" type="line"/>
      <point x="1165" y="519" type="line"/>
      <point x="749" y="519" type="line"/>
      <point x="749" y="499" type="line"/>
      <point x="1140" y="499" type="line"/>
      <point x="744" y="20" type="line"/>
    </contour>
    <contour>
      <point x="869" y="718" type="line"/>
      <point x="962" y="644" type="line"/>
      <point x="978" y="644" type="line"/>
      <point x="1071" y="718" type="line"/>
      <point x="1055" y="730" type="line"/>
      <point x="970" y="667" type="line"/>
      <point x="885" y="730" type="line"/>
    </contour>
  </outline>
</glyph>
<glyph name="uni01C9" format="1">
  <advance width="434"/>
  <unicode hex="01C9"/>
  <outline>
    <contour>
      <point x="90" y="77" type="line" smooth="yes"/>
      <point x="90" y="28"/>
      <point x="122" y="-5"/>
      <point x="169" y="-5" type="curve" smooth="yes"/>
      <point x="187" y="-5"/>
      <point x="220" y="1"/>
      <point x="238" y="7" type="curve"/>
      <point x="231" y="23" type="line"/>
      <point x="214" y="18"/>
      <point x="191" y="14"/>
      <point x="176" y="14" type="curve" smooth="yes"/>
      <point x="136" y="14"/>
      <point x="110" y="38"/>
      <point x="110" y="77" type="curve" smooth="yes"/>
      <point x="110" y="730" type="line"/>
      <point x="90" y="730" type="line"/>
    </contour>
    <contour>
      <point x="217" y="-170" type="curve" smooth="yes"/>
      <point x="279" y="-170"/>
      <point x="350" y="-114"/>
      <point x="350" y="-36" type="curve" smooth="yes"/>
      <point x="350" y="519" type="line"/>
      <point x="330" y="519" type="line"/>
      <point x="330" y="-36" type="line" smooth="yes"/>
      <point x="330" y="-100"/>
      <point x="271" y="-150"/>
      <point x="216" y="-150" type="curve" smooth="yes"/>
      <point x="188" y="-150"/>
      <point x="157" y="-145"/>
      <point x="133" y="-124" type="curve"/>
      <point x="117" y="-136" type="line"/>
      <point x="143" y="-162"/>
      <point x="178" y="-170"/>
    </contour>
    <contour>
      <point x="350" y="653" type="line"/>
      <point x="350" y="730" type="line"/>
      <point x="330" y="730" type="line"/>
      <point x="330" y="653" type="line"/>
    </contour>
  </outline>
</glyph>
<glyph name="aeacute" format="1">
  <advance width="928"/>
  <unicode hex="01FD"/>
  <outline>
    <contour>
      <point x="207" y="-10" type="curve" smooth="yes"/>
      <point x="292" y="-10"/>
      <point x="399" y="25"/>
      <point x="441" y="111" type="curve"/>
      <point x="486" y="38"/>
      <point x="562" y="-10"/>
      <point x="648" y="-10" type="curve" smooth="yes"/>
      <point x="738" y="-10"/>
      <point x="826" y="43"/>
      <point x="854" y="114" type="curve"/>
      <point x="835" y="119" type="line"/>
      <point x="806" y="55"/>
      <point x="729" y="10"/>
      <point x="649" y="10" type="curve" smooth="yes"/>
      <point x="528" y="10"/>
      <point x="428" y="114"/>
      <point x="418" y="248" type="curve"/>
      <point x="893" y="248" type="line"/>
      <point x="893" y="259" type="line" smooth="yes"/>
      <point x="892" y="408"/>
      <point x="781" y="527"/>
      <point x="643" y="527" type="curve" smooth="yes"/>
      <point x="555" y="527"/>
      <point x="478" y="477"/>
      <point x="435" y="403" type="curve"/>
      <point x="410" y="481"/>
      <point x="346" y="527"/>
      <point x="257" y="527" type="curve" smooth="yes"/>
      <point x="203" y="527"/>
      <point x="143" y="504"/>
      <point x="77" y="459" type="curve"/>
      <point x="89" y="443" type="line"/>
      <point x="147" y="484"/>
      <point x="207" y="507"/>
      <point x="257" y="507" type="curve" smooth="yes"/>
      <point x="342" y="507"/>
      <point x="404" y="456"/>
      <point x="421" y="376" type="curve"/>
      <point x="408" y="345"/>
      <point x="400" y="312"/>
      <point x="398" y="277" type="curve"/>
      <point x="354" y="289"/>
      <point x="301" y="297"/>
      <point x="253" y="297" type="curve" smooth="yes"/>
      <point x="127" y="297"/>
      <point x="39" y="236"/>
      <point x="39" y="149" type="curve" smooth="yes"/>
      <point x="39" y="60"/>
      <point x="113" y="-10"/>
    </contour>
    <contour>
      <point x="207" y="10" type="curve" smooth="yes"/>
      <point x="124" y="10"/>
      <point x="59" y="71"/>
      <point x="59" y="149" type="curve" smooth="yes"/>
      <point x="59" y="226"/>
      <point x="137" y="277"/>
      <point x="253" y="277" type="curve" smooth="yes"/>
      <point x="304" y="277"/>
      <point x="352" y="270"/>
      <point x="398" y="256" type="curve"/>
      <point x="399" y="213"/>
      <point x="409" y="173"/>
      <point x="427" y="137" type="curve"/>
      <point x="425" y="126"/>
      <point x="420" y="114"/>
      <point x="412" y="102" type="curve" smooth="yes"/>
      <point x="376" y="46"/>
      <point x="296" y="10"/>
    </contour>
    <contour>
      <point x="418" y="268" type="line"/>
      <point x="425" y="405"/>
      <point x="521" y="507"/>
      <point x="644" y="507" type="curve" smooth="yes"/>
      <point x="767" y="507"/>
      <point x="863" y="407"/>
      <point x="872" y="268" type="curve"/>
    </contour>
    <contour>
      <point x="504" y="730" type="line"/>
      <point x="470" y="730" type="line"/>
      <point x="406" y="657" type="line"/>
      <point x="422" y="645" type="line"/>
    </contour>
  </outline>
</glyph>
<glyph name="Ainvertedbreve" format="1">
  <advance width="674"/>
  <unicode hex="0202"/>
  <outline>
    <contour>
      <point x="18" y="0" type="line"/>
      <point x="40" y="0" type="line"/>
      <point x="151" y="254" type="line"/>
      <point x="522" y="254" type="line"/>
      <point x="633" y="0" type="line"/>
      <point x="655" y="0" type="line"/>
      <point x="346" y="710" type="line"/>
      <point x="328" y="710" type="line"/>
    </contour>
    <contour>
      <point x="159" y="274" type="line"/>
      <point x="337" y="681" type="line"/>
      <point x="513" y="274" type="line"/>
    </contour>
    <contour>
      <point x="337" y="901" type="curve" smooth="yes"/>
      <point x="364" y="901"/>
      <point x="389" y="874"/>
      <point x="393" y="841" type="curve"/>
      <point x="411" y="841" type="line"/>
      <point x="411" y="882"/>
      <point x="376" y="918"/>
      <point x="337" y="918" type="curve" smooth="yes"/>
      <point x="298" y="918"/>
      <point x="263" y="882"/>
      <point x="263" y="841" type="curve"/>
      <point x="282" y="841" type="line"/>
      <point x="282" y="871"/>
      <point x="309" y="901"/>
    </contour>
  </outline>
</glyph>
<glyph name="Edblgrave" format="1">
  <advance width="617"/>
  <unicode hex="0204"/>
  <outline>
    <contour>
      <point x="119" y="20" type="line"/>
      <point x="119" y="353" type="line"/>
      <point x="502" y="353" type="line"/>
      <point x="502" y="373" type="line"/>
      <point x="119" y="373" type="line"/>
      <point x="119" y="690" type="line"/>
      <point x="556" y="690" type="line"/>
      <point x="556" y="710" type="line"/>
      <point x="99" y="710" type="line"/>
      <point x="99" y="0" type="line"/>
      <point x="565" y="0" type="line"/>
      <point x="565" y="20" type="line"/>
    </contour>
    <contour>
      <point x="386" y="833" type="line"/>
      <point x="402" y="845" type="line"/>
      <point x="338" y="918" type="line"/>
      <point x="304" y="918" type="line"/>
    </contour>
    <contour>
      <point x="286" y="833" type="line"/>
      <point x="302" y="845" type="line"/>
      <point x="238" y="918" type="line"/>
      <point x="204" y="918" type="line"/>
    </contour>
  </outline>
</glyph>
<glyph name="Idblgrave" format="1">
  <advance width="218"/>
  <unicode hex="0208"/>
  <outline>
    <contour>
      <point x="119" y="0" type="line"/>
      <point x="119" y="710" type="line"/>
      <point x="99" y="710" type="line"/>
      <point x="99" y="0" type="line"/>
    </contour>
    <contour>
      <point x="163" y="833" type="line"/>
      <point x="179" y="845" type="line"/>
      <point x="115" y="918" type="line"/>
      <point x="81" y="918" type="line"/>
    </contour>
    <contour>
      <point x="63" y="833" type="line"/>
      <point x="79" y="845" type="line"/>
      <point x="15" y="918" type="line"/>
      <point x="-19" y="918" type="line"/>
    </contour>
  </outline>
</glyph>
<glyph name="Odblgrave" format="1">
  <advance width="757"/>
  <unicode hex="020C"/>
  <outline>
    <contour>
      <point x="379" y="-5" type="curve" smooth="yes"/>
      <point x="565" y="-5"/>
      <point x="709" y="164"/>
      <point x="709" y="355" type="curve" smooth="yes"/>
      <point x="709" y="532"/>
      <point x="575" y="715"/>
      <point x="379" y="715" type="curve" smooth="yes"/>
      <point x="192" y="715"/>
      <point x="48" y="544"/>
      <point x="48" y="355" type="curve" smooth="yes"/>
      <point x="48" y="173"/>
      <point x="183" y="-4"/>
    </contour>
    <contour>
      <point x="68" y="355" type="curve" smooth="yes"/>
      <point x="68" y="523"/>
      <point x="194" y="695"/>
      <point x="379" y="695" type="curve" smooth="yes"/>
      <point x="555" y="695"/>
      <point x="689" y="532"/>
      <point x="689" y="355" type="curve" smooth="yes"/>
      <point x="689" y="188"/>
      <point x="564" y="15"/>
      <point x="379" y="15" type="curve" smooth="yes"/>
      <point x="199" y="15"/>
      <point x="68" y="178"/>
    </contour>
    <contour>
      <point x="434" y="833" type="line"/>
      <point x="450" y="845" type="line"/>
      <point x="386" y="918" type="line"/>
      <point x="352" y="918" type="line"/>
    </contour>
    <contour>
      <point x="334" y="833" type="line"/>
      <point x="350" y="845" type="line"/>
      <point x="286" y="918" type="line"/>
      <point x="252" y="918" type="line"/>
    </contour>
  </outline>
</glyph>
<glyph name="rdblgrave" format="1">
  <advance width="323"/>
  <unicode hex="0211"/>
  <outline>
    <contour>
      <point x="306" y="519" type="line"/>
      <point x="298" y="519"/>
      <point x="286" y="518"/>
      <point x="273" y="517" type="curve" smooth="yes"/>
      <point x="205" y="509"/>
      <point x="140" y="458"/>
      <point x="104" y="385" type="curve"/>
      <point x="104" y="519" type="line"/>
      <point x="84" y="519" type="line"/>
      <point x="84" y="0" type="line"/>
      <point x="104" y="0" type="line"/>
      <point x="104" y="328" type="line"/>
      <point x="132" y="431"/>
      <point x="208" y="495"/>
      <point x="306" y="499" type="curve"/>
    </contour>
    <contour>
      <point x="241" y="645" type="line"/>
      <point x="257" y="657" type="line"/>
      <point x="193" y="730" type="line"/>
      <point x="159" y="730" type="line"/>
    </contour>
    <contour>
      <point x="141" y="645" type="line"/>
      <point x="157" y="657" type="line"/>
      <point x="93" y="730" type="line"/>
      <point x="59" y="730" type="line"/>
    </contour>
  </outline>
</glyph>
<glyph name="uni0218" format="1">
  <advance width="602"/>
  <unicode hex="0218"/>
  <outline>
    <contour>
      <point x="522" y="630" type="line"/>
      <point x="466" y="691"/>
      <point x="401" y="715"/>
      <point x="311" y="715" type="curve" smooth="yes"/>
      <point x="160" y="715"/>
      <point x="63" y="647"/>
      <point x="63" y="524" type="curve" smooth="yes"/>
      <point x="63" y="406"/>
      <point x="151" y="376"/>
      <point x="308" y="346" type="curve" smooth="yes"/>
      <point x="472" y="314"/>
      <point x="545" y="277"/>
      <point x="545" y="171" type="curve" smooth="yes"/>
      <point x="545" y="65"/>
      <point x="457" y="12"/>
      <point x="316" y="12" type="curve" smooth="yes"/>
      <point x="208" y="12"/>
      <point x="126" y="44"/>
      <point x="54" y="118" type="curve"/>
      <point x="39" y="105" type="line"/>
      <point x="115" y="30"/>
      <point x="201" y="-5"/>
      <point x="315" y="-5" type="curve" smooth="yes"/>
      <point x="470" y="-5"/>
      <point x="565" y="59"/>
      <point x="565" y="174" type="curve" smooth="yes"/>
      <point x="565" y="299"/>
      <point x="465" y="333"/>
      <point x="307" y="365" type="curve" smooth="yes"/>
      <point x="149" y="397"/>
      <point x="83" y="424"/>
      <point x="83" y="526" type="curve" smooth="yes"/>
      <point x="83" y="629"/>
      <point x="151" y="696"/>
      <point x="313" y="696" type="curve" smooth="yes"/>
      <point x="397" y="696"/>
      <point x="453" y="678"/>
      <point x="509" y="616" type="curve"/>
    </contour>
    <contour>
      <point x="313" y="-167" type="line"/>
      <point x="326" y="-109" type="line"/>
      <point x="326" y="-50" type="line"/>
      <point x="300" y="-50" type="line"/>
      <point x="300" y="-109" type="line"/>
      <point x="309" y="-109" type="line"/>
      <point x="299" y="-167" type="line"/>
    </contour>
  </outline>
</glyph>
<glyph name="uni0219" format="1">
  <advance width="471"/>
  <unicode hex="0219"/>
  <outline>
    <contour>
      <point x="235" y="-10" type="curve" smooth="yes"/>
      <point x="351" y="-10"/>
      <point x="428" y="48"/>
      <point x="428" y="139" type="curve" smooth="yes"/>
      <point x="428" y="229"/>
      <point x="352" y="248"/>
      <point x="228" y="277" type="curve" smooth="yes"/>
      <point x="126" y="301"/>
      <point x="81" y="314"/>
      <point x="81" y="383" type="curve" smooth="yes"/>
      <point x="81" y="470"/>
      <point x="154" y="507"/>
      <point x="240" y="507" type="curve" smooth="yes"/>
      <point x="306" y="507"/>
      <point x="370" y="485"/>
      <point x="395" y="444" type="curve"/>
      <point x="413" y="452" type="line"/>
      <point x="390" y="495"/>
      <point x="328" y="527"/>
      <point x="244" y="527" type="curve" smooth="yes"/>
      <point x="146" y="527"/>
      <point x="61" y="483"/>
      <point x="61" y="380" type="curve" smooth="yes"/>
      <point x="61" y="297"/>
      <point x="116" y="283"/>
      <point x="227" y="257" type="curve" smooth="yes"/>
      <point x="343" y="230"/>
      <point x="408" y="211"/>
      <point x="408" y="136" type="curve" smooth="yes"/>
      <point x="408" y="57"/>
      <point x="337" y="10"/>
      <point x="235" y="10" type="curve" smooth="yes"/>
      <point x="161" y="10"/>
      <point x="105" y="35"/>
      <point x="52" y="87" type="curve"/>
      <point x="37" y="74" type="line"/>
      <point x="89" y="17"/>
      <point x="156" y="-10"/>
    </contour>
    <contour>
      <point x="232" y="-167" type="line"/>
      <point x="245" y="-109" type="line"/>
      <point x="245" y="-50" type="line"/>
      <point x="219" y="-50" type="line"/>
      <point x="219" y="-109" type="line"/>
      <point x="228" y="-109" type="line"/>
      <point x="218" y="-167" type="line"/>
    </contour>
  </outline>
</glyph>
<glyph name="uni0403" format="1">
  <advance width="532"/>
  <unicode hex="0403"/>
  <outline>
    <contour>
      <point x="360" y="918" type="line"/>
      <point x="326" y="918" type="line"/>
      <point x="262" y="845" type="line"/>
      <point x="278" y="833" type="line"/>
    </contour>
    <contour>
      <point x="508" y="710" type="line"/>
      <point x="99" y="710" type="line"/>
      <point x="99" y="0" type="line"/>
      <point x="119" y="0" type="line"/>
      <point x="119" y="690" type="line"/>
      <point x="508" y="690" type="line"/>
    </contour>
  </outline>
</glyph>
<glyph name="uni040C" format="1">
  <advance width="560"/>
  <unicode hex="040C"/>
  <outline>
    <contour>
      <point x="373" y="918" type="line"/>
      <point x="339" y="918" type="line"/>
      <point x="275" y="845" type="line"/>
      <point x="291" y="833" type="line"/>
    </contour>
    <contour>
      <point x="119" y="710" type="line"/>
      <point x="99" y="710" type="line"/>
      <point x="99" y="0" type="line"/>
      <point x="119" y="0" type="line"/>
      <point x="119" y="361" type="line"/>
      <point x="268" y="361" type="line"/>
      <point x="532" y="0" type="line"/>
      <point x="558" y="0" type="line"/>
      <point x="284" y="371" type="line"/>
      <point x="525" y="710" type="line"/>
      <point x="499" y="710" type="line"/>
      <point x="270" y="381" type="line"/>
      <point x="119" y="381" type="line"/>
    </contour>
  </outline>
</glyph>
<glyph name="uni041B" format="1">
  <advance width="632"/>
  <unicode hex="041B"/>
  <outline>
    <contour>
      <point x="224" y="690" type="line"/>
      <point x="513" y="690" type="line"/>
      <point x="513" y="0" type="line"/>
      <point x="533" y="0" type="line"/>
      <point x="533" y="710" type="line"/>
      <point x="206" y="710" type="line"/>
      <point x="193" y="556" type="line" smooth="yes"/>
      <point x="155" y="102"/>
      <point x="76" y="20"/>
      <point x="5" y="20" type="curve"/>
      <point x="5" y="0" type="line"/>
      <point x="115" y="0"/>
      <point x="179" y="146"/>
      <point x="212" y="546" type="curve" smooth="yes"/>
    </contour>
  </outline>
</glyph>
<glyph name="uni0434" format="1">
  <advance width="541"/>
  <unicode hex="0434"/>
  <outline>
    <contour>
      <point x="18" y="-155" type="line"/>
      <point x="38" y="-155" type="line"/>
      <point x="38" y="0" type="line"/>
      <point x="491" y="0" type="line"/>
      <point x="491" y="-155" type="line"/>
      <point x="511" y="-155" type="line"/>
      <point x="511" y="19" type="line"/>
      <point x="443" y="19" type="line"/>
      <point x="443" y="519" type="line"/>
      <point x="185" y="519" type="line"/>
      <point x="168" y="388" type="line" smooth="yes"/>
      <point x="132" y="117"/>
      <point x="97" y="29"/>
      <point x="49" y="19" type="curve"/>
      <point x="18" y="19" type="line"/>
    </contour>
    <contour>
      <point x="85" y="19" type="line"/>
      <point x="126" y="42"/>
      <point x="162" y="162"/>
      <point x="189" y="378" type="curve" smooth="yes"/>
      <point x="204" y="500" type="line"/>
      <point x="423" y="500" type="line"/>
      <point x="423" y="19" type="line"/>
    </contour>
  </outline>
</glyph>
<glyph name="uni0438" format="1">
  <advance width="581"/>
  <unicode hex="0438"/>
  <outline>
    <contour>
      <point x="104" y="518" type="line"/>
      <point x="84" y="518" type="line"/>
      <point x="84" y="0" type="line"/>
      <point x="107" y="0" type="line"/>
      <point x="477" y="483" type="line"/>
      <point x="477" y="0" type="line"/>
      <point x="497" y="0" type="line"/>
      <point x="497" y="519" type="line"/>
      <point x="479" y="519" type="line"/>
      <point x="104" y="28" type="line"/>
    </contour>
  </outline>
</glyph>
<glyph name="uni045A" format="1">
  <advance width="801"/>
  <unicode hex="045A"/>
  <outline>
    <contour>
      <point x="84" y="0" type="line"/>
      <point x="104" y="0" type="line"/>
      <point x="104" y="272" type="line"/>
      <point x="413" y="272" type="line"/>
      <point x="413" y="0" type="line"/>
      <point x="601" y="0" type="line" smooth="yes"/>
      <point x="708" y="0"/>
      <point x="762" y="68"/>
      <point x="762" y="149" type="curve" smooth="yes"/>
      <point x="762" y="232"/>
      <point x="709" y="291"/>
      <point x="599" y="291" type="curve" smooth="yes"/>
      <point x="433" y="291" type="line"/>
      <point x="433" y="519" type="line"/>
      <point x="413" y="519" type="line"/>
      <point x="413" y="291" type="line"/>
      <point x="104" y="291" type="line"/>
      <point x="104" y="519" type="line"/>
      <point x="84" y="519" type="line"/>
    </contour>
    <contour>
      <point x="433" y="19" type="line"/>
      <point x="433" y="272" type="line"/>
      <point x="599" y="272" type="line" smooth="yes"/>
      <point x="710" y="272"/>
      <point x="742" y="213"/>
      <point x="742" y="149" type="curve" smooth="yes"/>
      <point x="742" y="83"/>
      <point x="702" y="19"/>
      <point x="601" y="19" type="curve" smooth="yes"/>
    </contour>
  </outline>
</glyph>
<glyph name="zdotbelow" format="1">
  <advance width="488"/>
  <unicode hex="1E93"/>
  <outline>
    <contour>
      <point x="33" y="0" type="line"/>
      <point x="450" y="0" type="line"/>
      <point x="450" y="20" type="line"/>
      <point x="59" y="20" type="line"/>
      <point x="454" y="499" type="line"/>
      <point x="454" y="519" type="line"/>
      <point x="38" y="519" type="line"/>
      <point x="38" y="499" type="line"/>
      <point x="429" y="499" type="line"/>
      <point x="33" y="20" type="line"/>
    </contour>
    <contour>
      <point x="257" y="-127" type="line"/>
      <point x="257" y="-50" type="line"/>
      <point x="237" y="-50" type="line"/>
      <point x="237" y="-127" type="line"/>
    </contour>
  </outline>
</glyph>
<glyph name="ytilde" format="1">
  <advance width="536"/>
  <unicode hex="1EF9"/>
  <outline>
    <contour>
      <point x="128" y="-223" type="line"/>
      <point x="142" y="-223"/>
      <point x="157" y="-221"/>
      <point x="169" y="-218" type="curve" smooth="yes"/>
      <point x="184" y="-214"/>
      <point x="194" y="-204"/>
      <point x="202" y="-186" type="curve" smooth="yes"/>
      <point x="511" y="519" type="line"/>
      <point x="489" y="519" type="line"/>
      <point x="272" y="25" type="line"/>
      <point x="43" y="519" type="line"/>
      <point x="21" y="519" type="line"/>
      <point x="262" y="0" type="line"/>
      <point x="193" y="-158"/>
      <point x="182" y="-184"/>
      <point x="175" y="-193" type="curve" smooth="yes"/>
      <point x="168" y="-202"/>
      <point x="151" y="-203"/>
      <point x="128" y="-203" type="curve"/>
    </contour>
    <contour>
      <point x="333" y="663" type="curve" smooth="yes"/>
      <point x="406" y="663"/>
      <point x="414" y="721"/>
      <point x="414" y="730" type="curve"/>
      <point x="394" y="730" type="line"/>
      <point x="394" y="726"/>
      <point x="390" y="682"/>
      <point x="335" y="682" type="curve" smooth="yes"/>
      <point x="284" y="682"/>
      <point x="262" y="720"/>
      <point x="210" y="720" type="curve" smooth="yes"/>
      <point x="144" y="720"/>
      <point x="137" y="659"/>
      <point x="137" y="653" type="curve"/>
      <point x="157" y="653" type="line"/>
      <point x="157" y="659"/>
      <point x="165" y="701"/>
      <point x="208" y="701" type="curve" smooth="yes"/>
      <point x="249" y="701"/>
      <point x="274" y="663"/>
    </contour>
  </outline>
</glyph>
<glyph name="uni2113" format="1">
  <advance width="262"/>
  <unicode hex="2113"/>
  <outline>
    <contour>
      <point x="169" y="13" type="curve" smooth="yes"/>
      <point x="128" y="13"/>
      <point x="102" y="37"/>
      <point x="102" y="76" type="curve" smooth="yes"/>
      <point x="102" y="303" type="line"/>
      <point x="172" y="379"/>
      <point x="235" y="507"/>
      <point x="235" y="610" type="curve" smooth="yes"/>
      <point x="235" y="687"/>
      <point x="204" y="740"/>
      <point x="159" y="740" type="curve" smooth="yes"/>
      <point x="115" y="740"/>
      <point x="82" y="684"/>
      <point x="82" y="610" type="curve" smooth="yes"/>
      <point x="82" y="87" type="line" smooth="yes"/>
      <point x="82" y="25"/>
      <point x="112" y="-5"/>
      <point x="163" y="-5" type="curve" smooth="yes"/>
      <point x="187" y="-5"/>
      <point x="212" y="2"/>
      <point x="235" y="12" type="curve"/>
      <point x="228" y="28" type="line"/>
      <point x="208" y="20"/>
      <point x="186" y="13"/>
    </contour>
    <contour>
      <point x="214" y="604" type="curve" smooth="yes"/>
      <point x="214" y="528"/>
      <point x="162" y="401"/>
      <point x="102" y="330" type="curve"/>
      <point x="102" y="610" type="line" smooth="yes"/>
      <point x="102" y="675"/>
      <point x="126" y="720"/>
      <point x="160" y="720" type="curve" smooth="yes"/>
      <point x="195" y="720"/>
      <point x="214" y="678"/>
    </contour>
  </outline>
</glyph>
<glyph name="twothirds" format="1">
  <advance width="804"/>
  <unicode hex="2154"/>
  <outline>
    <contour>
      <point x="147" y="-1" type="line"/>
      <point x="705" y="699" type="line"/>
      <point x="689" y="711" type="line"/>
      <point x="131" y="11" type="line"/>
    </contour>
    <contour>
      <point x="618" y="-5" type="curve" smooth="yes"/>
      <point x="700" y="-5"/>
      <point x="765" y="38"/>
      <point x="765" y="97" type="curve" smooth="yes"/>
      <point x="765" y="146"/>
      <point x="725" y="185"/>
      <point x="664" y="195" type="curve"/>
      <point x="723" y="208"/>
      <point x="753" y="237"/>
      <point x="753" y="282" type="curve" smooth="yes"/>
      <point x="753" y="342"/>
      <point x="692" y="388"/>
      <point x="610" y="388" type="curve" smooth="yes"/>
      <point x="549" y="388"/>
      <point x="496" y="362"/>
      <point x="476" y="322" type="curve"/>
      <point x="491" y="310" type="line"/>
      <point x="508" y="345"/>
      <point x="554" y="370"/>
      <point x="610" y="370" type="curve" smooth="yes"/>
      <point x="680" y="370"/>
      <point x="732" y="333"/>
      <point x="732" y="281" type="curve" smooth="yes"/>
      <point x="732" y="231"/>
      <point x="683" y="204"/>
      <point x="596" y="204" type="curve" smooth="yes"/>
      <point x="574" y="204" type="line"/>
      <point x="574" y="186" type="line"/>
      <point x="596" y="186" type="line" smooth="yes"/>
      <point x="685" y="186"/>
      <point x="745" y="152"/>
      <point x="745" y="99" type="curve" smooth="yes"/>
      <point x="745" y="50"/>
      <point x="690" y="14"/>
      <point x="618" y="14" type="curve" smooth="yes"/>
      <point x="545" y="14"/>
      <point x="488" y="53"/>
      <point x="485" y="98" type="curve"/>
      <point x="469" y="91" type="line"/>
      <point x="473" y="35"/>
      <point x="535" y="-5"/>
    </contour>
    <contour>
      <point x="333" y="343" type="line"/>
      <point x="333" y="362" type="line"/>
      <point x="73" y="362" type="line"/>
      <point x="73" y="402"/>
      <point x="81" y="467"/>
      <point x="186" y="503" type="curve" smooth="yes"/>
      <point x="242" y="522"/>
      <point x="332" y="542"/>
      <point x="332" y="622" type="curve" smooth="yes"/>
      <point x="332" y="679"/>
      <point x="290" y="731"/>
      <point x="200" y="731" type="curve" smooth="yes"/>
      <point x="103" y="731"/>
      <point x="56" y="669"/>
      <point x="53" y="664" type="curve"/>
      <point x="68" y="652" type="line"/>
      <point x="85" y="674"/>
      <point x="125" y="712"/>
      <point x="198" y="712" type="curve" smooth="yes"/>
      <point x="275" y="712"/>
      <point x="311" y="669"/>
      <point x="311" y="623" type="curve" smooth="yes"/>
      <point x="311" y="554"/>
      <point x="231" y="538"/>
      <point x="171" y="516" type="curve" smooth="yes"/>
      <point x="95" y="488"/>
      <point x="48" y="442"/>
      <point x="48" y="343" type="curve"/>
    </contour>
  </outline>
</glyph>
<glyph name="d.alt" format="1">
  <advance width="603"/>
  <outline>
    <contour>
      <point x="519" y="0" type="line"/>
      <point x="519" y="730" type="line"/>
      <point x="499" y="730" type="line"/>
      <point x="499" y="398" type="line"/>
      <point x="451" y="467"/>
      <point x="382" y="527"/>
      <point x="287" y="527" type="curve" smooth="yes"/>
      <point x="148" y="527"/>
      <point x="46" y="401"/>
      <point x="46" y="258" type="curve" smooth="yes"/>
      <point x="46" y="125"/>
      <point x="151" y="-10"/>
      <point x="296" y="-10" type="curve" smooth="yes"/>
      <point x="375" y="-10"/>
      <point x="455" y="39"/>
      <point x="499" y="108" type="curve"/>
      <point x="499" y="0" type="line"/>
    </contour>
    <contour>
      <point x="499" y="169" type="line"/>
      <point x="497" y="84"/>
      <point x="377" y="10"/>
      <point x="296" y="10" type="curve" smooth="yes"/>
      <point x="168" y="10"/>
      <point x="66" y="128"/>
      <point x="66" y="258" type="curve" smooth="yes"/>
      <point x="66" y="382"/>
      <point x="152" y="507"/>
      <point x="287" y="507" type="curve" smooth="yes"/>
      <point x="371" y="507"/>
      <point x="471" y="439"/>
      <point x="499" y="356" type="curve"/>
    </contour>
  </outline>
</glyph>
<glyph name="two.denominator" format="1">
  <advance width="369"/>
  <outline>
    <contour>
      <point x="325" y="0" type="line"/>
      <point x="325" y="19" type="line"/>
      <point x="65" y="19" type="line"/>
      <point x="65" y="59"/>
      <point x="73" y="124"/>
      <point x="178" y="160" type="curve" smooth="yes"/>
      <point x="234" y="179"/>
      <point x="324" y="199"/>
      <point x="324" y="279" type="curve" smooth="yes"/>
      <point x="324" y="336"/>
      <point x="282" y="388"/>
      <point x="192" y="388" type="curve" smooth="yes"/>
      <point x="95" y="388"/>
      <point x="48" y="326"/>
      <point x="45" y="321" type="curve"/>
      <point x="60" y="309" type="line"/>
      <point x="77" y="331"/>
      <point x="117" y="369"/>
      <point x="190" y="369" type="curve" smooth="yes"/>
      <point x="267" y="369"/>
      <point x="303" y="326"/>
      <point x="303" y="280" type="curve" smooth="yes"/>
      <point x="303" y="211"/>
      <point x="223" y="195"/>
      <point x="163" y="173" type="curve" smooth="yes"/>
      <point x="87" y="145"/>
      <point x="40" y="99"/>
      <point x="40" y="0" type="curve"/>
    </contour>
  </outline>
</glyph>
